<svg width="26" height="26" viewBox="0 0 26 26" fill="none" xmlns="http://www.w3.org/2000/svg">
<g id="star 8" clip-path="url(#clip0_73_107)">
<path id="Vector" d="M1.43755 13.4333L5.29421 16.25L3.82955 20.7859C3.59285 21.4894 3.58985 22.2506 3.821 22.9559C4.05215 23.6613 4.50506 24.273 5.11221 24.7C5.70897 25.1407 6.43214 25.3767 7.17396 25.373C7.91579 25.3693 8.63656 25.126 9.22888 24.6794L13 21.9039L16.7721 24.6762C17.3678 25.1143 18.0871 25.3523 18.8265 25.3559C19.566 25.3595 20.2875 25.1285 20.8875 24.6962C21.4874 24.2639 21.9348 23.6525 22.1653 22.9498C22.3958 22.2472 22.3976 21.4896 22.1704 20.7859L20.7057 16.25L24.5624 13.4333C25.1573 12.9984 25.5995 12.3866 25.8259 11.6852C26.0523 10.9839 26.0513 10.229 25.823 9.52833C25.5948 8.82763 25.1509 8.21699 24.5548 7.78364C23.9588 7.35028 23.241 7.11637 22.504 7.11532H17.7666L16.329 2.63466C16.103 1.92936 15.6588 1.31409 15.0604 0.877562C14.4621 0.441034 13.7406 0.205811 13 0.205811C12.2593 0.205811 11.5378 0.441034 10.9395 0.877562C10.3412 1.31409 9.89695 1.92936 9.67088 2.63466L8.2333 7.11532H3.50021C2.76327 7.11637 2.04551 7.35028 1.44944 7.78364C0.85338 8.21699 0.409509 8.82763 0.18123 9.52833C-0.0470496 10.229 -0.04806 10.9839 0.178343 11.6852C0.404746 12.3866 0.846981 12.9984 1.44188 13.4333H1.43755Z" fill="#FABD24"/>
</g>
<defs>
<clipPath id="clip0_73_107">
<rect width="26" height="26" fill="white"/>
</clipPath>
</defs>
</svg>
